<?xml version="1.0" encoding="utf-8"?>

<!-- Uploaded to: SVG Repo, www.svgrepo.com, Generator: SVG Repo Mixer Tools -->
<svg version="1.1" id="Icons" xmlns="http://www.w3.org/2000/svg" xmlns:xlink="http://www.w3.org/1999/xlink" 
	 viewBox="0 0 32 32" xml:space="preserve">
<style type="text/css">
	.st0{fill:none;stroke:#000000;stroke-width:2;stroke-linecap:round;stroke-linejoin:round;stroke-miterlimit:10;}
</style>
<g>
	<path d="M23,13.6l5,5V4c0-0.6-0.4-1-1-1h-4V13.6z"/>
	<polygon points="12.4,3 16.7,7.3 19.7,10.3 21,11.6 21,3 	"/>
	<path d="M14.6,8l-5-5H5C4.4,3,4,3.4,4,4v14.6L14.6,8z"/>
</g>
<path d="M28.8,29.2L26,26.4c0.7-1,1-2.1,1-3.4c0-3.3-2.7-6-6-6s-6,2.7-6,6s2.7,6,6,6c1.2,0,2.4-0.4,3.4-1l2.8,2.8
	c0.4,0.4,1.2,0.4,1.6,0C29.2,30.4,29.2,29.6,28.8,29.2z"/>
<path d="M13,23c0-4.4,3.6-8,8-8c0.2,0,0.4,0,0.6,0l-0.3-0.3c0,0,0,0,0,0l-3-3L16,9.4l-12,12V26c0,0.6,0.4,1,1,1h9.1
	C13.4,25.8,13,24.5,13,23z"/>
</svg>